<?xml version="1.0" encoding="UTF-8" standalone="no"?>
<svg
   xmlns:dc="http://purl.org/dc/elements/1.1/"
   xmlns:cc="http://creativecommons.org/ns#"
   xmlns:rdf="http://www.w3.org/1999/02/22-rdf-syntax-ns#"
   xmlns:svg="http://www.w3.org/2000/svg"
   xmlns="http://www.w3.org/2000/svg"
   xmlns:sodipodi="http://sodipodi.sourceforge.net/DTD/sodipodi-0.dtd"
   xmlns:inkscape="http://www.inkscape.org/namespaces/inkscape"
   viewBox="0 0 56.347493 38.040623"
   height="10.064915mm"
   width="14.908607mm"
   version="1.1"
   id="svg7861"
   sodipodi:docname="fred-white.svg"
   inkscape:version="1.0.2 (e86c8708, 2021-01-15)">
  <metadata
     id="metadata16">
    <rdf:RDF>
      <cc:Work
         rdf:about="">
        <dc:format>image/svg+xml</dc:format>
        <dc:type
           rdf:resource="http://purl.org/dc/dcmitype/StillImage" />
        <dc:title></dc:title>
      </cc:Work>
    </rdf:RDF>
  </metadata>
  <defs
     id="defs14" />
  <sodipodi:namedview
     pagecolor="#000000"
     bordercolor="#666666"
     borderopacity="1"
     objecttolerance="10"
     gridtolerance="10"
     guidetolerance="10"
     inkscape:pageopacity="0"
     inkscape:pageshadow="2"
     inkscape:window-width="848"
     inkscape:window-height="480"
     id="namedview12"
     showgrid="false"
     inkscape:zoom="1.6779656"
     inkscape:cx="100.1655"
     inkscape:cy="25.335667"
     inkscape:window-x="0"
     inkscape:window-y="23"
     inkscape:window-maximized="0"
     inkscape:current-layer="svg7861"
     inkscape:document-rotation="0"
     showguides="true"
     inkscape:guide-bbox="true"
     units="mm"
     height="70mm"
     fit-margin-top="0"
     fit-margin-left="0"
     fit-margin-right="0"
     fit-margin-bottom="0" />
  <path
     id="path7871"
     d="M 2.2529332,37.561063 C 1.0130462,36.816898 0.02700223,35.321439 8.422342e-4,33.589893 -0.03320777,31.336058 0.96591023,29.323844 2.8648252,29.292238 c 0.793558,-0.0132 1.835975,0.399035 2.141131,2.097904 0.03441,1.782494 -0.91904,3.322661 -2.112276,4.119469 0.1058,0.543412 0.450226,0.978394 1.127999,0.760219 2.090192,-0.67283 3.507749,-4.31556 5.739826,-14.749805 0.8945618,-4.181791 1.7603488,-8.48112 1.8336108,-8.806371 H 8.4311822 V 10.710943 H 12.515104 L 13.00151,9.3363821 c 1.296852,-3.664839 3.81919,-7.060835 6.548406,-8.52926004 1.780875,-0.958179 3.937194,-1.012069 4.906055,-0.430741 1.637391,0.98245504 2.065746,3.38367404 1.209478,5.91182504 -0.616223,1.819406 -1.509358,2.37248 -2.615704,2.196478 -0.822795,-0.130894 -1.546624,-1.031896 -1.620225,-1.850425 -0.106038,-1.179248 0.265503,-2.236602 1.246058,-3.005341 0.521207,-0.408618 1.088158,-0.422075 1.323527,-0.953708 -1.122772,-2.17524804 -2.987676,-0.79794 -4.12594,1.308653 -0.36634,0.677992 -1.072213,2.42993 -1.568603,3.893196 l -0.927167,2.8338839 h 4.491209 v 2.002711 h -4.890542 l -1.001173,4.159934 c -2.091093,8.68861 -4.430903,14.936438 -6.6632778,17.874929 -2.140877,2.818048 -5.000601,4.048968 -7.060678,2.812546 z"
     style="fill:#ffffff;fill-opacity:1;stroke-width:0.298072" />
  <text
     xml:space="preserve"
     style="font-style:normal;font-weight:normal;font-size:25.185px;line-height:1.25;font-family:sans-serif;fill:#ffffff;fill-opacity:1;stroke:none;stroke-width:0.629625"
     x="18.646423"
     y="34.063526"
     id="text20"
     transform="scale(0.92861893,1.076868)"><tspan
       sodipodi:role="line"
       id="tspan18"
       x="18.646423"
       y="34.063526"
       style="font-style:italic;font-variant:normal;font-weight:normal;font-stretch:normal;font-family:sans-serif;-inkscape-font-specification:'sans-serif Italic';fill:#ffffff;stroke-width:0.629625">red</tspan></text>
</svg>
